<svg width="170" height="41" viewBox="0 0 170 41" fill="none" xmlns="http://www.w3.org/2000/svg">
<path d="M51.8601 34.138H63.8121V30.538H56.1081V16.978H51.8601V34.138Z" fill="#505A7E"/>
<path d="M70.8932 31.738C69.1892 31.738 68.3012 30.25 68.3012 28.018C68.3012 25.786 69.1892 24.274 70.8932 24.274C72.5972 24.274 73.5092 25.786 73.5092 28.018C73.5092 30.25 72.5972 31.738 70.8932 31.738ZM70.9172 34.522C74.8772 34.522 77.4692 31.714 77.4692 28.018C77.4692 24.322 74.8772 21.514 70.9172 21.514C66.9812 21.514 64.3412 24.322 64.3412 28.018C64.3412 31.714 66.9812 34.522 70.9172 34.522Z" fill="#505A7E"/>
<path d="M84.3238 38.386C86.1478 38.386 87.7558 37.978 88.8358 37.018C89.8198 36.13 90.4678 34.786 90.4678 32.938V21.85H86.7238V23.17H86.6758C85.9558 22.138 84.8518 21.49 83.2198 21.49C80.1718 21.49 78.0598 24.034 78.0598 27.634C78.0598 31.402 80.6278 33.466 83.3878 33.466C84.8758 33.466 85.8118 32.866 86.5318 32.05H86.6278V33.274C86.6278 34.762 85.9318 35.626 84.2758 35.626C82.9798 35.626 82.3318 35.074 82.1158 34.426H78.3238C78.7078 36.994 80.9398 38.386 84.3238 38.386ZM84.2998 30.562C82.8358 30.562 81.8758 29.362 81.8758 27.514C81.8758 25.642 82.8358 24.442 84.2998 24.442C85.9318 24.442 86.7958 25.834 86.7958 27.49C86.7958 29.218 86.0038 30.562 84.2998 30.562Z" fill="#505A7E"/>
<path d="M98.166 31.738C96.462 31.738 95.574 30.25 95.574 28.018C95.574 25.786 96.462 24.274 98.166 24.274C99.87 24.274 100.782 25.786 100.782 28.018C100.782 30.25 99.87 31.738 98.166 31.738ZM98.19 34.522C102.15 34.522 104.742 31.714 104.742 28.018C104.742 24.322 102.15 21.514 98.19 21.514C94.254 21.514 91.614 24.322 91.614 28.018C91.614 31.714 94.254 34.522 98.19 34.522Z" fill="#505A7E"/>
<path d="M105.884 34.138H109.796V21.85H105.884V34.138ZM105.884 20.146H109.796V16.978H105.884V20.146Z" fill="#505A7E"/>
<path d="M111.494 38.194H115.406V32.866H115.454C116.222 33.898 117.35 34.522 118.934 34.522C122.15 34.522 124.286 31.978 124.286 27.994C124.286 24.298 122.294 21.49 119.03 21.49C117.35 21.49 116.15 22.234 115.31 23.338H115.238V21.85H111.494V38.194ZM117.926 31.498C116.246 31.498 115.286 30.13 115.286 28.138C115.286 26.146 116.15 24.634 117.854 24.634C119.534 24.634 120.326 26.026 120.326 28.138C120.326 30.226 119.414 31.498 117.926 31.498Z" fill="#505A7E"/>
<path d="M130.655 34.522C133.871 34.522 136.247 33.13 136.247 30.442C136.247 27.298 133.703 26.746 131.543 26.386C129.983 26.098 128.591 25.978 128.591 25.114C128.591 24.346 129.335 23.986 130.295 23.986C131.375 23.986 132.119 24.322 132.263 25.426H135.863C135.671 23.002 133.799 21.49 130.319 21.49C127.415 21.49 125.015 22.834 125.015 25.426C125.015 28.306 127.295 28.882 129.431 29.242C131.063 29.53 132.551 29.65 132.551 30.754C132.551 31.546 131.807 31.978 130.631 31.978C129.335 31.978 128.519 31.378 128.375 30.154H124.679C124.799 32.866 127.055 34.522 130.655 34.522Z" fill="#505A7E"/>
<path d="M141.561 34.498C143.265 34.498 144.345 33.826 145.233 32.626H145.305V34.138H149.049V21.85H145.137V28.714C145.137 30.178 144.321 31.186 142.977 31.186C141.729 31.186 141.129 30.442 141.129 29.098V21.85H137.241V29.914C137.241 32.65 138.729 34.498 141.561 34.498Z" fill="#505A7E"/>
<path d="M150.75 34.138H154.662V27.25C154.662 25.786 155.382 24.754 156.606 24.754C157.782 24.754 158.334 25.522 158.334 26.842V34.138H162.246V27.25C162.246 25.786 162.942 24.754 164.19 24.754C165.366 24.754 165.918 25.522 165.918 26.842V34.138H169.83V26.146C169.83 23.386 168.438 21.49 165.654 21.49C164.07 21.49 162.75 22.162 161.79 23.65H161.742C161.118 22.33 159.894 21.49 158.286 21.49C156.51 21.49 155.334 22.33 154.566 23.602H154.494V21.85H150.75V34.138Z" fill="#505A7E"/>
<path fill-rule="evenodd" clip-rule="evenodd" d="M16.6151 38C25.4135 38 32.5461 30.8675 32.5461 22.069C32.5461 13.2706 25.4135 6.13803 16.6151 6.13803C7.81662 6.13803 0.684082 13.2706 0.684082 22.069C0.684082 30.8675 7.81662 38 16.6151 38ZM21.585 13.5594C21.8269 12.7 20.993 12.1919 20.2314 12.7345L9.59996 20.3083C8.77402 20.8967 8.90393 22.069 9.79511 22.069H12.5947V22.0473H18.0509L13.6051 23.616L11.6452 30.5787C11.4033 31.438 12.2371 31.9461 12.9988 31.4035L23.6302 23.8298C24.4562 23.2414 24.3262 22.069 23.4351 22.069H19.1896L21.585 13.5594Z" fill="#505A7E"/>
</svg>
